<svg xmlns="http://www.w3.org/2000/svg" class="svg-inline--fa fa-mobile-android fa-w-10 fa-3x" role="img" aria-hidden="true" viewBox="0 0 320 512" focusable="false" data-prefix="fas" data-icon="mobile-android"><path class="" fill="#ffffff" d="M 272 0 H 48 C 21.5 0 0 21.5 0 48 v 416 c 0 26.5 21.5 48 48 48 h 224 c 26.5 0 48 -21.5 48 -48 V 48 c 0 -26.5 -21.5 -48 -48 -48 Z m -64 452 c 0 6.6 -5.4 12 -12 12 h -72 c -6.6 0 -12 -5.4 -12 -12 v -8 c 0 -6.6 5.4 -12 12 -12 h 72 c 6.6 0 12 5.4 12 12 v 8 Z"/></svg>